<svg width="28" height="29" viewBox="0 0 28 29" fill="none" xmlns="http://www.w3.org/2000/svg">
<path d="M27.0674 14.8173C27.0674 22.2272 21.1158 28.2264 13.7837 28.2264C6.45158 28.2264 0.5 22.2272 0.5 14.8173C0.5 7.40738 6.45158 1.4082 13.7837 1.4082C21.1158 1.4082 27.0674 7.40738 27.0674 14.8173Z" stroke="white"/>
<path d="M15.0103 23.9054V15.7094H17.7504L18.1577 12.5004H15.0103V10.4564C15.0103 9.53037 15.266 8.89637 16.583 8.89637H18.2518V6.03537C17.4399 5.94756 16.6237 5.90517 15.8071 5.90837C13.3851 5.90837 11.7222 7.40037 11.7222 10.1394V12.4944H9V15.7034H11.7282V23.9054H15.0103Z" fill="white"/>
</svg>
