<svg width="28" height="29" viewBox="0 0 28 29" fill="none" xmlns="http://www.w3.org/2000/svg">
<path d="M27.0674 14.8173C27.0674 22.2272 21.1158 28.2264 13.7837 28.2264C6.45158 28.2264 0.5 22.2272 0.5 14.8173C0.5 7.40738 6.45158 1.4082 13.7837 1.4082C21.1158 1.4082 27.0674 7.40738 27.0674 14.8173Z" stroke="white"/>
<path fill-rule="evenodd" clip-rule="evenodd" d="M10.6594 6.9562C11.5048 6.91693 11.7744 6.9082 13.9279 6.9082C16.0814 6.9082 16.3509 6.91766 17.1956 6.9562C18.0403 6.99475 18.6169 7.13075 19.1214 7.32784C19.6497 7.52929 20.1289 7.8442 20.5253 8.25148C20.9289 8.65075 21.2403 9.13366 21.4392 9.66748C21.6352 10.1766 21.7693 10.7584 21.8082 11.6093C21.8471 12.4638 21.8558 12.7358 21.8558 14.9082C21.8558 17.0813 21.8464 17.3533 21.8082 18.2064C21.77 19.0573 21.6352 19.6391 21.4392 20.1482C21.2403 20.6821 20.9284 21.1658 20.5253 21.5657C20.1289 21.9729 19.6497 22.2871 19.1214 22.4878C18.6169 22.6857 18.0403 22.8209 17.1971 22.8602C16.3509 22.8995 16.0814 22.9082 13.9279 22.9082C11.7744 22.9082 11.5048 22.8987 10.6594 22.8602C9.8162 22.8217 9.23962 22.6857 8.73512 22.4878C8.20606 22.2871 7.72671 21.9724 7.33044 21.5657C6.92712 21.1661 6.615 20.6827 6.41585 20.1489C6.22054 19.6398 6.08649 19.058 6.04757 18.2071C6.00865 17.3526 6 17.0806 6 14.9082C6 12.7351 6.00937 12.4631 6.04757 11.6107C6.08577 10.7584 6.22054 10.1766 6.41585 9.66748C6.61529 9.13372 6.92765 8.65025 7.33116 8.25075C7.72687 7.84384 8.20573 7.52889 8.7344 7.32784C9.2389 7.13075 9.81548 6.99548 10.6587 6.9562H10.6594ZM17.1315 8.3962C16.2954 8.35766 16.0446 8.34966 13.9279 8.34966C11.8111 8.34966 11.5603 8.35766 10.7243 8.3962C9.95097 8.43184 9.53151 8.56202 9.25188 8.67184C8.88215 8.81729 8.61764 8.98966 8.34017 9.26966C8.07714 9.52788 7.87471 9.84223 7.74774 10.1897C7.63891 10.4718 7.5099 10.8951 7.47459 11.6755C7.43639 12.5191 7.42846 12.7722 7.42846 14.9082C7.42846 17.0442 7.43639 17.2973 7.47459 18.1409C7.5099 18.9213 7.63891 19.3446 7.74774 19.6267C7.87459 19.9737 8.07711 20.2886 8.34017 20.5467C8.59602 20.8122 8.90809 21.0166 9.25188 21.1446C9.53151 21.2544 9.95097 21.3846 10.7243 21.4202C11.5603 21.4587 11.8104 21.4667 13.9279 21.4667C16.0454 21.4667 16.2954 21.4587 17.1315 21.4202C17.9048 21.3846 18.3243 21.2544 18.6039 21.1446C18.9736 20.9991 19.2381 20.8267 19.5156 20.5467C19.7787 20.2886 19.9812 19.9737 20.108 19.6267C20.2169 19.3446 20.3459 18.9213 20.3812 18.1409C20.4194 17.2973 20.4273 17.0442 20.4273 14.9082C20.4273 12.7722 20.4194 12.5191 20.3812 11.6755C20.3459 10.8951 20.2169 10.4718 20.108 10.1897C19.9639 9.81657 19.7931 9.54966 19.5156 9.26966C19.2597 9.00426 18.9482 8.79999 18.6039 8.67184C18.3243 8.56202 17.9048 8.43184 17.1315 8.3962ZM12.9153 17.3744C13.4808 17.6119 14.1105 17.644 14.6968 17.4651C15.2832 17.2862 15.7898 16.9074 16.1301 16.3935C16.4705 15.8795 16.6234 15.2623 16.5629 14.6472C16.5023 14.0321 16.232 13.4573 15.7981 13.0209C15.5216 12.742 15.1871 12.5284 14.8189 12.3956C14.4507 12.2627 14.0579 12.2139 13.6688 12.2527C13.2796 12.2914 12.9039 12.4167 12.5685 12.6196C12.2331 12.8224 11.9465 13.0978 11.7292 13.4259C11.5119 13.754 11.3695 14.1266 11.3121 14.5169C11.2546 14.9072 11.2837 15.3055 11.3971 15.6831C11.5106 16.0607 11.7055 16.4083 11.9681 16.7007C12.2306 16.9932 12.5541 17.2232 12.9153 17.3744ZM11.0465 12.0006C11.4249 11.6187 11.8741 11.3158 12.3685 11.1092C12.8629 10.9025 13.3928 10.7962 13.9279 10.7962C14.463 10.7962 14.9929 10.9025 15.4873 11.1092C15.9817 11.3158 16.4309 11.6187 16.8093 12.0006C17.1877 12.3824 17.4879 12.8357 17.6927 13.3346C17.8974 13.8335 18.0028 14.3682 18.0028 14.9082C18.0028 15.4482 17.8974 15.9829 17.6927 16.4818C17.4879 16.9807 17.1877 17.434 16.8093 17.8158C16.0451 18.587 15.0086 19.0202 13.9279 19.0202C12.8471 19.0202 11.8107 18.587 11.0465 17.8158C10.2823 17.0447 9.85294 15.9988 9.85294 14.9082C9.85294 13.8176 10.2823 12.7717 11.0465 12.0006ZM18.9066 11.4086C19.0004 11.3193 19.0754 11.212 19.1274 11.0929C19.1793 10.9739 19.207 10.8455 19.2089 10.7154C19.2108 10.5854 19.1868 10.4562 19.1383 10.3357C19.0898 10.2152 19.0179 10.1057 18.9268 10.0137C18.8356 9.92171 18.7271 9.84912 18.6076 9.80022C18.4882 9.75131 18.3602 9.72709 18.2313 9.72899C18.1024 9.73089 17.9752 9.75886 17.8573 9.81126C17.7393 9.86365 17.6329 9.9394 17.5444 10.034C17.3724 10.218 17.2782 10.4625 17.2819 10.7154C17.2855 10.9684 17.3867 11.2099 17.564 11.3888C17.7413 11.5677 17.9807 11.6698 18.2313 11.6735C18.482 11.6772 18.7242 11.5822 18.9066 11.4086Z" fill="white"/>
</svg>
